<svg width="16" height="14" viewBox="0 0 16 14" fill="none" xmlns="http://www.w3.org/2000/svg">
<path id="shopping-cart" fill-rule="evenodd" clip-rule="evenodd" d="M1 0C0.585786 0 0.25 0.335786 0.25 0.75C0.25 1.16421 0.585786 1.5 1 1.5H2.88524L3.38431 3.99348C3.38746 4.01335 3.39139 4.03295 3.39607 4.05227L4.43937 9.26486L4.43952 9.26559C4.53108 9.72569 4.78147 10.139 5.14692 10.4332C5.51048 10.7258 5.96487 10.8821 6.43137 10.875H12.4936C12.9601 10.8821 13.4145 10.7258 13.7781 10.4332C14.1437 10.1388 14.3942 9.72526 14.4856 9.26486L14.4857 9.26487L14.4867 9.25925L15.4867 4.0155C15.5286 3.79593 15.4704 3.56914 15.3279 3.39692C15.1854 3.2247 14.9735 3.125 14.75 3.125H4.74023L4.23541 0.602807C4.16526 0.252289 3.85747 0 3.5 0H1ZM5.91041 8.97156L5.04045 4.625H13.8435L13.0139 8.97478C12.9907 9.08902 12.9283 9.19159 12.8375 9.26471C12.7461 9.3383 12.6317 9.37739 12.5144 9.37514L12.5 9.375H6.425L6.41063 9.37514C6.2933 9.37739 6.17893 9.3383 6.08752 9.26471C5.99611 9.19113 5.93349 9.08774 5.91063 8.97264L5.91041 8.97156ZM6 14C6.55228 14 7 13.5523 7 13C7 12.4477 6.55228 12 6 12C5.44772 12 5 12.4477 5 13C5 13.5523 5.44772 14 6 14ZM13.25 14C13.8023 14 14.25 13.5523 14.25 13C14.25 12.4477 13.8023 12 13.25 12C12.6977 12 12.25 12.4477 12.25 13C12.25 13.5523 12.6977 14 13.25 14Z" fill="currentColor"/>
</svg>
