<svg width="60" height="30" viewBox="0 0 60 30" fill="none" xmlns="http://www.w3.org/2000/svg">
<g id="_2296264943280">
<path id="Vector" fill-rule="evenodd" clip-rule="evenodd" d="M21.213 0.00153446C21.8099 -0.0405655 22.3798 0.78151 23.2128 2.73051C21.7866 3.29473 13.3415 10.7442 11.9653 12.112C13.5925 11.7192 16.0437 11.2682 17.665 11.3651C18.7592 11.4305 19.2369 13.3179 19.367 13.8088C13.8008 16.8017 6.68365 24.2019 3.0623 30C0.964445 27.9709 0.265661 26.3249 0.0235865 25.6242C-0.113238 25.2284 0.292726 23.293 2.64092 18.8195C2.85932 18.4037 2.46162 18.6037 2.15452 18.3721C1.68465 18.0181 1.09037 17.4178 1.18622 16.9366C1.48318 15.4436 3.95204 9.48079 5.19699 9.35298C6.07545 9.26277 7.44596 10.5626 7.40085 11.0407C7.38431 11.2178 7.0415 11.3475 6.74792 11.5516C5.86721 12.886 4.48054 15.7315 4.09074 16.8453C4.81245 17.0625 5.47966 17.4264 5.01506 18.3936C3.55397 21.4357 2.50372 24.2815 1.99364 26.5482C6.27881 20.2377 10.1464 16.8746 14.5315 13.6919C13.4437 13.7111 11.9119 13.9919 10.8673 14.3005C8.98448 14.8564 7.76622 15.5699 7.62488 15.1327C7.23921 13.9407 10.988 9.93299 11.9646 8.8211C14.2477 6.22218 14.8668 5.62225 16.7606 3.82286C9.9915 5.72111 4.86433 8.11292 2.20226 9.58228C1.53392 9.69805 0.832883 7.71447 0.716732 7.04613C3.90768 5.18359 17.4169 0.27105 21.2119 0.00228698L21.213 0.00153446Z" fill="#FFBD19"/>
<g id="Group">
<path id="Vector_2" d="M11.7748 25.9053V13.2201H14.9853C15.5386 13.2201 16.0502 13.2671 16.5201 13.3611C16.9899 13.455 17.4049 13.6219 17.765 13.8621C18.1251 14.1023 18.4018 14.4338 18.595 14.8567C18.7882 15.2796 18.8848 15.8303 18.8848 16.5088C18.8848 17.0204 18.8119 17.4564 18.6656 17.8165C18.5194 18.1766 18.3108 18.4612 18.039 18.6698C17.7676 18.8784 17.4335 19.0197 17.0369 19.0927C17.5274 19.1656 17.9402 19.3329 18.274 19.5937C18.6081 19.8546 18.8589 20.1993 19.0258 20.6274C19.1926 21.0556 19.2765 21.5724 19.2765 22.178C19.2765 22.8147 19.1957 23.3684 19.0336 23.8379C18.8716 24.3078 18.6344 24.6942 18.321 24.9968C18.0078 25.2994 17.6214 25.5264 17.1621 25.6779C16.7027 25.8294 16.1701 25.905 15.5645 25.905H11.7744L11.7748 25.9053ZM14.359 24.0886H15.0796C15.7269 24.0886 16.1731 23.9266 16.4186 23.603C16.664 23.2793 16.7866 22.7941 16.7866 22.1468C16.7866 21.6457 16.7291 21.2461 16.614 20.9488C16.4994 20.6511 16.3141 20.432 16.0581 20.291C15.8025 20.15 15.4604 20.0798 15.0323 20.0798H14.3587V24.089L14.359 24.0886ZM14.359 18.3412H15.0011C15.4499 18.3412 15.7893 18.2758 16.019 18.1454C16.2487 18.015 16.408 17.8165 16.4967 17.5504C16.5855 17.2842 16.6298 16.958 16.6298 16.5715C16.6298 16.1851 16.5644 15.8746 16.434 15.6397C16.3035 15.4048 16.1051 15.2353 15.8389 15.1308C15.5728 15.0263 15.236 14.974 14.8289 14.974H14.359V18.3412ZM20.7643 25.9053V13.2201H24.0529C24.9092 13.2201 25.6426 13.3167 26.2534 13.5099C26.8642 13.7031 27.3341 14.0448 27.663 14.5357C27.9919 15.0266 28.1562 15.7051 28.1562 16.5719C28.1562 17.094 28.1118 17.556 28.0231 17.9578C27.9344 18.3597 27.7777 18.7096 27.5532 19.0073C27.3288 19.305 27.0131 19.5426 26.6056 19.72L28.3595 25.9061H25.7129L24.2563 20.1587H23.3481V25.9061H20.7639L20.7643 25.9053ZM23.3485 18.6232H24.1003C24.5179 18.6232 24.8468 18.5551 25.087 18.4194C25.3272 18.2837 25.4967 18.0774 25.596 17.8007C25.6952 17.5241 25.7448 17.1824 25.7448 16.7749C25.7448 16.19 25.6377 15.7438 25.4238 15.436C25.2096 15.1281 24.8104 14.974 24.2258 14.974H23.3489V18.6232H23.3485ZM33.3401 26.0779C32.4109 26.0779 31.6749 25.911 31.1321 25.5768C30.5893 25.2426 30.2003 24.7649 29.9653 24.1439C29.7304 23.5225 29.6131 22.7787 29.6131 21.9122V17.1827C29.6131 16.3159 29.7304 15.5747 29.9653 14.959C30.2003 14.3429 30.5893 13.873 31.1321 13.5494C31.6753 13.2257 32.4113 13.0637 33.3401 13.0637C34.2798 13.0637 35.0237 13.2284 35.5718 13.5573C36.1198 13.8862 36.5115 14.356 36.7464 14.9669C36.9814 15.5777 37.0987 16.3163 37.0987 17.1827V21.9122C37.0987 22.7787 36.9814 23.5225 36.7464 24.1439C36.5115 24.7652 36.1198 25.243 35.5718 25.5768C35.0237 25.911 34.2798 26.0779 33.3401 26.0779ZM33.3401 24.2142C33.6743 24.2142 33.9197 24.1386 34.0761 23.9872C34.2325 23.8357 34.337 23.6323 34.3892 23.3763C34.4415 23.1207 34.4674 22.8467 34.4674 22.5542V16.5561C34.4674 16.2637 34.4415 15.9923 34.3892 15.742C34.337 15.4912 34.2325 15.2905 34.0761 15.139C33.9194 14.9875 33.6743 14.912 33.3401 14.912C33.027 14.912 32.7921 14.9875 32.6353 15.139C32.4786 15.2905 32.3744 15.4912 32.3222 15.742C32.2699 15.9927 32.244 16.2641 32.244 16.5561V22.5542C32.244 22.8467 32.2673 23.1207 32.3143 23.3763C32.3613 23.6323 32.4632 23.8357 32.6195 23.9872C32.7763 24.1386 33.0165 24.2142 33.3397 24.2142H33.3401Z" fill="white"/>
<path id="Vector_3" d="M41.0597 25.9052L38.2251 13.22H39.885L41.8897 22.5695L43.8003 13.22H45.4133L42.6099 25.9052H41.0593H41.0597ZM46.7601 25.9052V13.22H51.6621V14.4886H48.5298V18.717H50.9573V19.9699H48.5298V25.9052H46.7601ZM52.1004 25.9052L54.7471 19.2651L52.1474 13.22H53.7919L55.718 17.6991L57.4719 13.22H59.1164L56.454 19.406L59.2416 25.9052H57.5971L55.5297 21.1287L53.7442 25.9052H52.0997H52.1004Z" fill="#FFBD19"/>
</g>
</g>
</svg>
