<svg width="13" height="15" viewBox="0 0 13 15" fill="none" xmlns="http://www.w3.org/2000/svg">
<path id="Vector" d="M6.64744 7.95349C4.7307 7.95349 3.1707 6.39349 3.1707 4.47674C3.1707 2.56 4.7307 1 6.64744 1C8.56419 1 10.1242 2.56 10.1242 4.47674C10.1242 6.39349 8.56419 7.95349 6.64744 7.95349ZM6.64744 1.90698C5.96639 1.90857 5.31368 2.17983 4.83211 2.66141C4.35053 3.14299 4.07927 3.79569 4.07767 4.47674C4.07927 5.1578 4.35053 5.8105 4.83211 6.29208C5.31368 6.77366 5.96639 7.04491 6.64744 7.04651C7.3285 7.04491 7.9812 6.77366 8.46278 6.29208C8.94436 5.8105 9.21561 5.1578 9.21721 4.47674C9.21561 3.79569 8.94436 3.14299 8.46278 2.66141C7.9812 2.17983 7.3285 1.90857 6.64744 1.90698ZM11.8414 14C11.5935 14 11.3879 13.7944 11.3879 13.5465C11.3879 11.4605 9.25953 9.76744 6.64744 9.76744C4.03535 9.76744 1.90698 11.4605 1.90698 13.5465C1.90698 13.7944 1.7014 14 1.45349 14C1.20558 14 1 13.7944 1 13.5465C1 10.9647 3.53349 8.86047 6.64744 8.86047C9.7614 8.86047 12.2949 10.9647 12.2949 13.5465C12.2949 13.7944 12.0893 14 11.8414 14Z" fill="white" stroke="white" stroke-width="0.5"/>
</svg>
